HIERARCHY
ROOT SpineBase
{
  OFFSET 0.000000 0.000000 0.000000
  CHANNELS 6 Xposition Yposition Zposition Zrotation Xrotation Yrotation
  JOINT SpineMid
  {
    OFFSET 0.000000 27.314866 0.000000
    CHANNELS 3 Zrotation Xrotation Yrotation
    JOINT SpineShoulder
    {
      OFFSET -0.093464 20.444343 -0.531062
      CHANNELS 3 Zrotation Xrotation Yrotation
      JOINT Neck
      {
        OFFSET -0.033914 6.815610 -0.447946
        CHANNELS 3 Zrotation Xrotation Yrotation
        JOINT Head
        {
          OFFSET -2.940934 11.534950 2.329353
          CHANNELS 3 Zrotation Xrotation Yrotation
          End Site
          {
            OFFSET 0 0 0
          }
        }
      }
      JOINT ShoulderLeft
      {
        OFFSET -12.837882 -3.997457 4.324637
        CHANNELS 3 Zrotation Xrotation Yrotation
        JOINT ElbowLeft
        {
          OFFSET -0.573577 -23.261622 1.314705
          CHANNELS 3 Zrotation Xrotation Yrotation
          JOINT WristLeft
          {
            OFFSET -1.950649 -22.439276 -4.699755
            CHANNELS 3 Zrotation Xrotation Yrotation
            JOINT HandLeft
            {
              OFFSET 0.908409 -5.057557 -0.927273
              CHANNELS 3 Zrotation Xrotation Yrotation
              JOINT HandTipLeft
              {
                OFFSET 0.039651 -5.537027 0.438544
                CHANNELS 3 Zrotation Xrotation Yrotation
                End Site
                {
                  OFFSET 0 0 0
                }
              }
              JOINT ThumbLeft
              {
                OFFSET 3.104031 -0.068360 -3.649257
                CHANNELS 3 Zrotation Xrotation Yrotation
                End Site
                {
                  OFFSET 0 0 0
                }
              }
            }
          }
        }
      }
      JOINT ShoulderRight
      {
        OFFSET 11.680507 -2.137951 -7.140092
        CHANNELS 3 Zrotation Xrotation Yrotation
        JOINT ElbowRight
        {
          OFFSET 5.511146 -22.750011 -2.466471
          CHANNELS 3 Zrotation Xrotation Yrotation
          JOINT WristRight
          {
            OFFSET -0.409517 -19.237440 -6.285028
            CHANNELS 3 Zrotation Xrotation Yrotation
            JOINT HandRight
            {
              OFFSET -1.122538 -6.184197 -0.559580
              CHANNELS 3 Zrotation Xrotation Yrotation
              JOINT HandTipRight
              {
                OFFSET 0.107396 -6.186060 -1.601222
                CHANNELS 3 Zrotation Xrotation Yrotation
                End Site
                {
                  OFFSET 0 0 0
                }
              }
              JOINT ThumbRight
              {
                OFFSET -3.214269 0.922238 -0.184380
                CHANNELS 3 Zrotation Xrotation Yrotation
                End Site
                {
                  OFFSET 0 0 0
                }
              }
            }
          }
        }
      }
    }
  }
  JOINT HipLeft
  {
    OFFSET -5.357781 0.491189 -1.430300
    CHANNELS 3 Zrotation Xrotation Yrotation
    JOINT KneeLeft
    {
      OFFSET 5.459831 -29.048604 -1.217076
      CHANNELS 3 Zrotation Xrotation Yrotation
      JOINT AnkleLeft
      {
        OFFSET 5.055101 -32.344549 3.356668
        CHANNELS 3 Zrotation Xrotation Yrotation
        JOINT FootLeft
        {
          OFFSET -2.173584 -2.108271 -9.307744
          CHANNELS 3 Zrotation Xrotation Yrotation
          End Site
          {
            OFFSET 0 0 0
          }
        }
      }
    }
  }
  JOINT HipRight
  {
    OFFSET 4.858786 1.662383 -4.465521
    CHANNELS 3 Zrotation Xrotation Yrotation
    JOINT KneeRight
    {
      OFFSET 8.149291 -26.735247 -4.696139
      CHANNELS 3 Zrotation Xrotation Yrotation
      JOINT AnkleRight
      {
        OFFSET 4.531841 -34.154546 2.722760
        CHANNELS 3 Zrotation Xrotation Yrotation
        JOINT FootRight
        {
          OFFSET -5.598888 -6.100195 0.992784
          CHANNELS 3 Zrotation Xrotation Yrotation
          End Site
          {
            OFFSET 0 0 0
          }
        }
      }
    }
  }
}
MOTION
Frames: 13
Frame Time: 0.033333
31.921069 58.546180 363.549274 11.315973 -17.270765 43.557510 -0.190248 0.426976 -41.589606 -0.227518 0.145577 0.417636 11.132359 -3.591880 -11.242756 0.000000 0.000000 0.000000 1.053878 3.737805 -0.146095 17.040930 -1.067184 -7.942776 -45.161052 20.123951 16.532969 0.307694 -11.856373 -6.585013 0.000000 0.000000 0.000000 0.000000 0.000000 0.000000 -0.958868 3.929265 -4.948618 4.726789 -18.654322 2.437722 13.172524 -18.373931 13.047683 -23.581270 28.319471 3.360498 0.000000 0.000000 0.000000 0.000000 0.000000 0.000000 8.461731 28.794531 -42.651835 -0.848235 -0.809124 -0.978506 9.348855 36.014768 -27.482331 0.000000 0.000000 0.000000 -5.399430 15.732400 -41.885578 0.057060 20.256174 4.035406 -62.903283 17.765200 -22.521268 0.000000 0.000000 0.000000
31.563514 60.032015 362.812600 10.856038 -15.907388 38.424657 -0.566015 0.669992 -36.617137 -0.202414 0.002343 0.392797 13.524386 -4.406814 -11.366441 0.000000 0.000000 0.000000 -0.710776 3.209052 0.118030 12.125307 -0.707747 -5.519313 -31.870677 18.824833 11.359593 -0.292561 -6.052464 -4.232267 0.000000 0.000000 0.000000 0.000000 0.000000 0.000000 -2.913473 5.216495 -3.717951 5.511343 -20.029868 1.946800 15.615095 -19.743951 12.179262 -26.648735 24.626371 5.730252 0.000000 0.000000 0.000000 0.000000 0.000000 0.000000 4.058774 26.439434 -36.724616 -0.776871 -0.342369 -0.769359 6.324223 10.796235 -19.895187 0.000000 0.000000 0.000000 -5.462508 15.035465 -36.854170 -3.002938 14.122377 3.118801 -61.389939 2.998513 -15.332319 0.000000 0.000000 0.000000
31.038829 62.236531 361.909092 10.418446 -14.533805 32.312135 -0.766325 0.773588 -30.691238 -0.051035 -0.083742 0.364995 18.504355 -6.194368 -12.170415 0.000000 0.000000 0.000000 -1.812815 2.599411 0.245569 5.043311 -1.307924 -2.604154 -15.918615 19.074698 5.415746 -6.967795 -0.975007 -2.848976 0.000000 0.000000 0.000000 0.000000 0.000000 0.000000 -3.772415 5.624690 -3.013217 2.363948 -18.319114 2.143836 19.282184 -21.762464 10.062632 -28.453524 27.453312 7.019809 0.000000 0.000000 0.000000 0.000000 0.000000 0.000000 -0.717964 23.150470 -29.955880 -0.115585 0.811011 -0.365108 5.167182 -2.486782 -14.280925 0.000000 0.000000 0.000000 -5.557753 14.116997 -30.910288 -6.336620 7.942972 1.909659 -42.887357 22.521769 -16.185244 0.000000 0.000000 0.000000
30.146570 64.340001 361.013956 8.873746 -12.784953 28.075493 -1.065095 0.906246 -26.808258 0.203859 -0.304247 0.295741 22.437811 -6.103133 -12.105897 0.000000 0.000000 0.000000 -0.475607 1.317016 0.224816 0.298016 -1.173369 -1.100280 -11.613673 18.582314 4.143617 -6.514634 1.600144 -2.746334 0.000000 0.000000 0.000000 0.000000 0.000000 0.000000 -2.463019 5.282313 -2.762301 -2.572366 -12.904391 2.676327 21.933275 -24.071998 8.188313 -28.948767 25.578315 7.656114 0.000000 0.000000 0.000000 0.000000 0.000000 0.000000 -2.137937 18.849035 -26.126028 -0.114852 1.484875 -0.101588 4.143074 -9.450236 -6.942168 0.000000 0.000000 0.000000 -7.282862 11.733489 -26.752627 -1.808391 10.299203 1.972257 -24.874841 17.899174 -18.520747 0.000000 0.000000 0.000000
29.027281 66.680659 360.192739 6.937745 -11.153008 24.299397 -1.040537 0.854394 -23.413785 0.464246 -0.419009 0.221701 23.880861 -3.476342 -11.322272 0.000000 0.000000 0.000000 2.146441 -0.740194 0.259471 -3.286983 -0.671471 -0.298254 -16.216259 16.756441 6.148909 0.441448 6.346138 -2.998906 0.000000 0.000000 0.000000 0.000000 0.000000 0.000000 0.062233 4.545949 -2.847151 -8.350013 -5.409892 3.763516 20.628365 -21.045494 4.716553 -24.370582 16.719296 5.038316 0.000000 0.000000 0.000000 0.000000 0.000000 0.000000 -1.270382 15.156464 -23.118550 -1.014117 1.018132 -0.077344 3.253525 -10.090328 -1.908907 0.000000 0.000000 0.000000 -6.590099 9.734605 -23.423662 -0.592034 8.416501 1.440156 -17.772882 18.708888 -18.667547 0.000000 0.000000 0.000000
28.707666 67.996392 359.157600 5.216807 -8.200314 20.242756 -0.861029 0.572860 -19.731265 0.594061 -0.433008 0.175563 22.794273 -2.692145 -9.437868 0.000000 0.000000 0.000000 1.536672 -2.012760 0.339645 -0.391475 1.920511 -1.186928 -19.647976 16.315689 7.831695 7.304248 4.943899 -3.499523 0.000000 0.000000 0.000000 0.000000 0.000000 0.000000 3.006822 2.412068 -2.920128 -14.714118 2.373191 5.438202 12.297768 -1.746403 -2.260782 -11.363009 -9.000182 1.020614 0.000000 0.000000 0.000000 0.000000 0.000000 0.000000 -2.715614 10.458312 -19.415356 -0.025752 1.774064 0.135506 2.648221 -9.889962 -0.214772 0.000000 0.000000 0.000000 -7.101867 6.696752 -19.642824 1.005527 6.728375 0.887096 -5.579278 28.762918 -27.689314 0.000000 0.000000 0.000000
28.613804 68.606392 357.928014 4.166248 -5.714821 15.351558 -0.631704 0.171128 -15.045214 0.610304 -0.192628 0.151760 19.236235 -1.410299 -7.315861 0.000000 0.000000 0.000000 0.288163 -4.213745 0.404389 -1.043475 7.722429 -1.109373 -16.303047 12.191948 6.385204 8.330636 2.057863 -3.570132 0.000000 0.000000 0.000000 0.000000 0.000000 0.000000 5.643766 1.199697 -2.791576 -16.232644 4.778661 5.040557 1.471485 35.020446 -6.513146 7.763940 -45.867079 8.338817 0.000000 0.000000 0.000000 0.000000 0.000000 0.000000 -4.404633 5.669719 -14.991841 0.935709 2.996574 0.387790 1.187409 -4.407690 0.211877 0.000000 0.000000 0.000000 -7.993032 3.511689 -15.072814 1.910885 5.971006 0.624929 6.233317 31.116328 -32.899480 0.000000 0.000000 0.000000
28.096860 69.609332 356.881361 2.788816 -3.281018 14.675649 -0.145190 -0.329482 -14.531676 0.449785 0.326922 0.114536 15.839861 0.387640 -5.141851 0.000000 0.000000 0.000000 0.247187 -4.609689 0.327122 -3.232958 9.641130 -0.358963 -11.985701 9.274037 5.127765 9.392500 1.576198 -3.258199 0.000000 0.000000 0.000000 0.000000 0.000000 0.000000 7.068245 -0.652175 -2.370304 -16.219824 2.054510 4.588257 8.535082 11.159787 -4.337600 -8.857673 -17.456141 1.904481 0.000000 0.000000 0.000000 0.000000 0.000000 0.000000 -3.933624 2.062293 -14.789415 1.167364 3.199147 0.457823 1.305689 -4.832050 -0.295171 0.000000 0.000000 0.000000 -7.383442 0.505314 -14.957656 2.198761 5.214661 0.543358 9.164420 29.519198 -31.178156 0.000000 0.000000 0.000000
27.559415 70.198325 355.967630 1.782493 -1.293599 16.678613 0.505975 -0.982659 -16.593788 0.147853 1.090883 0.087109 11.373505 1.632720 -3.063100 0.000000 0.000000 0.000000 -0.242177 -4.308230 0.191899 -3.980832 10.590038 -0.079657 -7.603052 6.345462 4.056730 3.104557 -0.472267 -3.848235 0.000000 0.000000 0.000000 0.000000 0.000000 0.000000 7.206157 -1.816650 -1.802544 -16.384244 2.582474 4.299055 6.408465 11.917042 -4.260632 -6.904401 -17.448412 2.216982 0.000000 0.000000 0.000000 0.000000 0.000000 0.000000 -3.429131 -0.259170 -17.026727 1.412434 2.533819 0.384654 0.656383 -2.900395 0.124248 0.000000 0.000000 0.000000 -6.501860 -1.771252 -17.440384 1.879441 4.592048 0.603240 8.728963 23.848143 -23.846863 0.000000 0.000000 0.000000
26.711244 70.310708 355.434148 0.661247 0.030867 19.005798 1.071816 -0.759155 -18.948034 -0.200793 1.411827 0.049453 8.034771 2.648130 -1.257310 0.000000 0.000000 0.000000 0.252324 -3.504660 0.115888 -3.969766 9.786444 -0.135057 -4.490069 5.551659 3.731853 0.079128 -0.525570 -3.922578 0.000000 0.000000 0.000000 0.000000 0.000000 0.000000 7.174705 -2.782942 -1.192859 -15.677163 2.786288 3.875849 3.353590 11.831090 -3.833379 -4.750950 -17.035133 2.453385 0.000000 0.000000 0.000000 0.000000 0.000000 0.000000 -1.885658 -1.821385 -19.434716 0.511787 2.308999 0.401612 0.808639 -3.900941 0.570749 0.000000 0.000000 0.000000 -4.774105 -3.583507 -20.170651 1.035705 3.965562 0.797925 15.503522 22.179243 -23.011101 0.000000 0.000000 0.000000
25.898701 70.075573 354.979180 0.083138 1.132809 18.515814 1.131512 -0.454282 -18.461424 -0.523279 1.688539 0.009816 5.330052 3.633533 0.257003 0.000000 0.000000 0.000000 -0.038834 -4.076580 0.035165 -3.157874 9.089333 -0.014476 -1.606451 8.255186 3.911971 -3.062092 -3.708567 -4.649503 0.000000 0.000000 0.000000 0.000000 0.000000 0.000000 6.991677 -3.349448 -0.646095 -14.500452 3.638710 3.340106 -0.080468 7.747202 -2.992705 -2.705015 -14.978721 2.312139 0.000000 0.000000 0.000000 0.000000 0.000000 0.000000 -1.011407 -3.741650 -19.072340 -0.339028 2.733066 0.535842 0.603873 -3.121257 0.650987 0.000000 0.000000 0.000000 -3.548466 -4.499008 -19.657890 1.355806 2.568613 0.682219 11.476781 16.208563 -14.550326 0.000000 0.000000 0.000000
25.696389 69.965594 354.260080 -0.216133 2.870467 17.768023 0.948670 -0.019247 -17.706739 -0.736065 1.826140 -0.030079 4.057413 2.885243 1.217973 0.000000 0.000000 0.000000 0.042467 -4.966989 -0.020041 -2.731633 9.104198 -0.003282 0.123165 10.408271 4.366569 -6.814977 -3.538024 -5.941569 0.000000 0.000000 0.000000 0.000000 0.000000 0.000000 6.075534 -4.476717 -0.055648 -12.954024 4.189057 2.849719 -2.386037 6.647502 -2.877548 -0.019139 -14.056463 2.468512 0.000000 0.000000 0.000000 0.000000 0.000000 0.000000 -1.852929 -6.161001 -18.537960 0.944975 2.869842 0.596915 -0.926195 -0.831395 1.902566 0.000000 0.000000 0.000000 -3.903241 -6.367951 -19.040936 2.263136 2.120830 0.630444 7.826936 8.409193 -5.117047 0.000000 0.000000 0.000000
25.420093 69.919551 353.562676 -0.813194 4.492359 17.687551 0.940747 0.207007 -17.597841 -0.811643 1.780847 -0.064885 3.751000 2.091242 1.806092 0.000000 0.000000 0.000000 -0.213555 -5.191157 -0.135045 -1.518220 8.301077 -0.072109 -1.790526 12.016775 5.257728 -4.585265 -0.225805 -6.097613 0.000000 0.000000 0.000000 0.000000 0.000000 0.000000 5.424292 -5.037830 0.451819 -11.681425 4.047826 2.317544 -3.876981 6.421803 -2.905002 1.728860 -14.471502 2.582543 0.000000 0.000000 0.000000 0.000000 0.000000 0.000000 -2.081393 -8.338871 -18.604728 1.586571 2.824902 0.610892 -2.286702 1.908525 3.354689 0.000000 0.000000 0.000000 -4.141907 -8.742432 -19.296895 2.868557 2.454870 0.770125 6.466915 9.948364 -6.392266 0.000000 0.000000 0.000000
